<svg width="1840" height="1177" viewBox="0 0 1840 1177" fill="none" xmlns="http://www.w3.org/2000/svg">
<path fill-rule="evenodd" clip-rule="evenodd" d="M878.397 374.292C878.814 368.455 880.61 313.987 883.785 210.892C884.579 185.087 866.32 162.456 840.493 157.233C838.762 156.883 837.895 156.708 837.895 156.708C806.724 154.574 778.98 175.929 773.745 206.086L747.017 360.032" fill="white"/>
<path d="M838.196 157.892L840.709 158.4C865.93 163.5 883.761 185.601 882.986 210.801C879.813 313.827 878.016 368.341 877.6 374.151C877.551 374.837 878.08 375.432 878.781 375.48C879.482 375.528 880.091 375.012 880.14 374.324C880.559 368.46 882.353 314.043 885.53 210.876C886.342 184.467 867.656 161.304 841.223 155.96L838.625 155.435L838.457 155.412C806.633 153.232 778.306 175.035 772.963 205.824L746.235 359.771C746.118 360.45 746.584 361.093 747.277 361.208C747.971 361.324 748.627 360.867 748.745 360.189L775.471 206.241C780.592 176.742 807.711 155.847 838.196 157.892Z" fill="#4395F5"/>
<path fill-rule="evenodd" clip-rule="evenodd" d="M899.124 360.742L912.779 256.82C914.094 246.814 906.874 237.661 896.653 236.374C895.864 236.274 895.07 236.225 894.274 236.225C881.622 236.225 870.404 244.19 866.475 255.964L831.488 360.81L899.124 360.742Z" fill="white"/>
<path d="M900.223 361.225C900.863 361.225 901.402 360.758 901.484 360.139L915.139 256.216C916.542 245.528 908.831 235.751 897.914 234.375C897.07 234.271 896.222 234.216 895.372 234.216C882.168 234.216 870.463 242.528 866.363 254.814L831.376 359.662C831.106 360.468 831.72 361.293 832.586 361.293L900.223 361.225ZM899.101 358.735L834.34 358.8L868.783 255.586C872.54 244.327 883.269 236.708 895.372 236.708C896.113 236.708 896.853 236.754 897.589 236.847C907.113 238.046 913.839 246.576 912.614 255.899L899.101 358.735Z" fill="#4395F5"/>
<path fill-rule="evenodd" clip-rule="evenodd" d="M562.527 615.796L692.124 574.444C706.813 569.756 717.529 557.336 719.791 542.375L747.491 359.149H897.668L871.096 591.956C866.416 632.963 843.851 669.986 809.21 693.496L661.797 793.539L562.527 615.796Z" fill="#9CC4F2"/>
<path fill-rule="evenodd" clip-rule="evenodd" d="M873.912 570.945C843.933 587.004 822.156 605.276 808.581 625.763C795.005 646.252 783.41 676.983 773.794 717.957C782.097 712.03 789.168 707.046 795.005 703.006C818.908 686.471 837.281 671.43 848.458 654.003C863.731 630.193 872.215 602.507 873.912 570.945Z" fill="#AFD9FF"/>
<path d="M710.79 560.301C710.8 560.284 710.812 560.268 710.823 560.253C710.856 560.208 710.891 560.166 710.929 560.126C715.017 554.973 717.784 548.796 718.799 542.09L746.474 359.036C746.566 358.425 747.102 357.972 747.733 357.972H897.91C898.669 357.972 899.259 358.618 899.174 359.357L887.634 460.464C887.832 460.705 887.937 461.019 887.907 461.351C887.875 461.704 887.696 462.009 887.435 462.213L872.619 592.019C867.888 633.468 845.044 670.877 809.991 694.581L663.369 793.733C662.899 794.05 662.271 794.024 661.832 793.665C641.654 777.19 624.861 756.294 611.457 730.988C598.087 705.746 583.075 666.647 566.402 613.672C566.197 613.019 566.567 612.325 567.232 612.117L691.76 573.229C699.432 570.834 706.001 566.264 710.79 560.301ZM609.053 601.673L569.207 614.117C585.688 666.363 600.531 704.945 613.717 729.842C626.806 754.55 643.139 774.981 662.721 791.143L700.087 765.876L609.053 601.673ZM611.522 600.903L702.193 764.45L808.544 692.531C842.993 669.237 865.44 632.474 870.089 591.741L884.859 462.335L735.5 449.192C735.473 449.19 735.446 449.187 735.419 449.182L721.317 542.453C720.297 549.189 717.618 555.424 713.664 560.713L802.535 623.089C803.107 623.491 803.238 624.268 802.829 624.828C802.418 625.388 801.624 625.516 801.052 625.114L712.098 562.68C707.068 568.618 700.337 573.166 692.534 575.603L611.522 600.903ZM735.79 446.717L885.143 459.858L896.486 360.463H748.831L735.79 446.717Z" fill="#4395F5"/>
<path fill-rule="evenodd" clip-rule="evenodd" d="M329.202 641.544C329.202 641.544 289.608 661.755 210.418 702.176L244.115 762.739L346.171 695.463C334.858 659.518 329.202 641.544 329.202 641.544Z" fill="#AFD9FF"/>
<path fill-rule="evenodd" clip-rule="evenodd" d="M1116.57 916.464L1091.97 720.449L1104.69 714.635L1157.3 638.222L1166.63 635.731C1170.01 634.94 1172.55 634.94 1174.27 635.731C1175.98 636.52 1178.24 638.734 1181.05 642.375V874.936C1179.19 879.333 1177.49 882.378 1175.96 884.072C1174.44 885.765 1171.89 887.426 1168.33 889.055L1116.57 916.464ZM890.033 1089.23L1051.24 1031.08L1058.88 1052.68L1164.09 1079.26L1168.33 1086.73C1167.38 1092.22 1166.24 1096.11 1164.93 1098.36C1163.63 1100.62 1161.08 1103.12 1157.3 1105.84L937.547 1156.5C933.001 1156.95 929.324 1156.39 926.517 1154.84C923.71 1153.28 920.881 1150.24 918.032 1145.71L890.033 1089.23Z" fill="white"/>
<path d="M328.006 640.509L209.222 701.141C208.591 701.463 208.352 702.229 208.693 702.842L242.39 763.404C242.75 764.049 243.596 764.251 244.219 763.841L346.273 696.565C346.74 696.259 346.945 695.689 346.779 695.164L329.81 641.247C329.576 640.503 328.71 640.149 328.006 640.509ZM344.069 695.015L243.956 761.01L211.547 702.764L327.828 643.41L344.069 695.015Z" fill="#4395F5"/>
<path fill-rule="evenodd" clip-rule="evenodd" d="M693.191 847.526V850.087L576.952 629.916L412.352 698.023C415.42 796.354 429.48 861.694 454.533 894.038C479.588 926.384 524.071 936.628 587.982 924.769H680.464L693.191 847.526Z" fill="#AFD9FF"/>
<path d="M694.702 847.527V850.087C694.702 850.567 694.461 850.927 694.125 851.135L681.96 924.968C681.86 925.571 681.329 926.016 680.702 926.016H588.341C524.065 937.918 479.138 927.556 453.758 894.791C428.5 862.18 414.393 796.634 411.317 698.062C411.302 697.547 411.61 697.075 412.096 696.876L576.697 628.769C577.308 628.515 578.017 628.766 578.322 629.344L692.905 846.379C693.658 846.07 694.702 846.488 694.702 847.527ZM694.374 849.61L694.432 849.271L694.239 848.905C694.354 849.123 694.4 849.367 694.374 849.61ZM576.602 631.513L413.889 698.838C417.005 796.452 431.011 861.299 455.788 893.285C480.5 925.192 524.5 935.325 587.985 923.546L588.22 923.524H679.62L691.785 849.685L576.602 631.513Z" fill="#4395F5"/>
<path fill-rule="evenodd" clip-rule="evenodd" d="M662.647 793.539L671.131 809.32C645.06 829.453 624.413 843.573 609.194 851.679C593.974 859.787 577.288 867.262 559.135 874.105L548.953 856.663C565.5 849.669 581.339 841.918 596.467 833.407C611.595 824.896 633.655 811.607 662.647 793.539Z" fill="#AFD9FF"/>
<path fill-rule="evenodd" clip-rule="evenodd" d="M712.705 1131.59L1114.87 918.124L1092.81 721.278L694.039 913.141" fill="#AFD9FF"/>
<path d="M661.934 791.676C632.104 811.359 608.937 825.74 592.448 834.813C575.99 843.868 560.507 850.757 546.004 855.481C545.337 855.698 544.977 856.403 545.2 857.056C545.42 857.708 546.141 858.062 546.808 857.845C561.473 853.069 577.102 846.114 593.696 836.984C610.256 827.873 633.473 813.461 663.356 793.741C663.94 793.357 664.094 792.583 663.7 792.012C663.308 791.442 662.516 791.291 661.934 791.676Z" fill="#4395F5"/>
<path d="M670.969 808.327C643.275 828.886 619.084 844.633 598.407 855.567C577.818 866.453 563.781 872.223 556.474 872.865C555.775 872.924 555.258 873.531 555.321 874.215C555.383 874.901 556.001 875.406 556.702 875.346C564.475 874.665 578.719 868.808 599.615 857.758C620.421 846.758 644.716 830.942 672.508 810.313C673.068 809.897 673.177 809.115 672.752 808.567C672.328 808.018 671.529 807.912 670.969 808.327Z" fill="#4395F5"/>
<path d="M1113.94 916.999C1113.89 916.895 1113.86 916.782 1113.86 916.662L1091.8 722.373L693.993 914.26C693.364 914.564 692.6 914.31 692.289 913.694C691.979 913.076 692.239 912.33 692.868 912.026L1102.37 714.494L1154.75 638.892C1156.6 636.233 1159.69 634.658 1162.96 634.703C1164.14 634.719 1165.26 634.935 1166.27 635.316C1166.34 635.201 1166.46 635.063 1166.63 634.9C1167.19 634.347 1167.85 633.997 1168.62 633.849C1169.38 633.699 1170.16 633.625 1170.94 633.623C1177.52 633.613 1182.87 638.834 1182.89 645.283L1183.24 868.383C1183.26 877.974 1178.37 887.416 1168.99 889.735V889.905C1168.99 890.355 1168.73 890.767 1168.33 890.983L712.703 1132.68C712.086 1133 711.314 1132.78 710.978 1132.17C710.643 1131.57 710.872 1130.82 711.49 1130.49L1113.94 916.999ZM1116.3 915.744L1166.46 889.139L1170.04 644.356C1170.09 640.457 1166.92 637.251 1162.93 637.196C1160.5 637.161 1158.23 638.326 1156.86 640.291L1104.29 716.165C1104.17 716.345 1104 716.489 1103.79 716.584L1093.99 721.318C1094.17 721.508 1094.29 721.755 1094.32 722.034L1116.3 915.744ZM1168.9 636.773C1171.18 638.553 1172.64 641.313 1172.59 644.392L1169.04 887.14C1176.85 884.823 1180.71 876.604 1180.7 868.386L1180.34 645.288C1180.32 640.213 1176.12 636.106 1170.94 636.115C1170.33 636.116 1169.72 636.175 1169.11 636.293C1169.04 636.475 1168.97 636.636 1168.9 636.773Z" fill="#4395F5"/>
<path fill-rule="evenodd" clip-rule="evenodd" d="M391.988 887.454L404.956 956.392L501.67 1123.5C527.117 1167.47 581.359 1186.92 629.798 1169.43L663.695 1157.2C696.306 1145.42 724.44 1124.15 744.288 1096.21L831.897 972.942L890.033 1089.23L1051.24 1031.08L937.91 768.709C925.494 739.961 896.704 721.278 864.82 721.278C831.13 721.278 798.812 734.345 774.942 757.616L623.01 905.727" fill="#9CC4F2"/>
<path fill-rule="evenodd" clip-rule="evenodd" d="M768.703 763.64C795.854 784.128 824.136 798.801 853.549 807.66C882.962 816.521 915.486 814.582 951.122 801.846C943.168 776.05 934.4 758.055 924.819 747.859C913.406 735.714 892.123 724.9 879.851 722.111C863.749 718.452 834.009 722.686 810.278 733.739C798.861 739.057 785.002 749.024 768.703 763.64Z" fill="#AFD9FF"/>
<path d="M1167.92 1084.05L1168.38 1083.94L1168.39 1084.02C1171.04 1094.74 1164.3 1105.54 1153.34 1108.13L941.38 1158.15C931.817 1160.41 921.929 1156.11 917.223 1147.7C916.821 1147.63 916.461 1147.39 916.276 1147.02L831.695 975.347L745.332 1096.87C725.334 1125.01 696.989 1146.46 664.133 1158.32L630.236 1170.54C581.213 1188.23 526.316 1168.55 500.561 1124.06L403.847 956.947C403.777 956.826 403.728 956.694 403.702 956.558L390.736 887.621C390.609 886.945 391.065 886.295 391.756 886.17C392.448 886.046 393.112 886.493 393.239 887.171L406.166 955.902L502.775 1122.83C527.915 1166.27 581.503 1185.48 629.355 1168.2L663.252 1155.97C695.619 1144.3 723.542 1123.17 743.243 1095.44L830.85 972.173C831.407 971.39 832.618 971.483 833.042 972.342L889.984 1087.92L1049.37 1030.43L953.72 808.603C897.12 835.612 833.852 822.658 764.075 769.907L623.906 906.551C623.407 907.036 622.603 907.034 622.106 906.548C621.61 906.059 621.612 905.27 622.109 904.785L774.041 756.674C798.152 733.171 830.792 719.975 864.819 719.975C897.211 719.975 926.456 738.965 939.052 768.179L1051.98 1030.07C1052.18 1030.21 1052.34 1030.41 1052.43 1030.65C1052.51 1030.86 1052.53 1031.07 1052.5 1031.27L1060.89 1050.73L1160.57 1075.37C1164.13 1076.25 1166.88 1079.01 1167.7 1082.52C1167.82 1083.03 1167.88 1083.55 1167.92 1084.05ZM1166.39 1089.79C1165.05 1091.82 1162.93 1093.37 1160.33 1093.95L919.87 1147.2C924.17 1154.16 932.611 1157.67 940.785 1155.72L1152.73 1105.71C1160.55 1103.86 1165.92 1097.25 1166.39 1089.79ZM891.094 1090.18L918.129 1145.04L1159.77 1091.52C1163.66 1090.66 1166.09 1086.87 1165.22 1083.07C1164.61 1080.48 1162.57 1078.43 1159.94 1077.79L1059.65 1053C1059.27 1052.9 1058.95 1052.63 1058.79 1052.27L1050.36 1032.73L891.094 1090.18ZM952.729 806.304L936.707 769.148C924.508 740.857 896.188 722.466 864.819 722.466C831.466 722.466 799.471 735.402 775.838 758.44L765.894 768.135C834.914 820.225 897.14 832.893 952.729 806.304Z" fill="#4395F5"/>
<path fill-rule="evenodd" clip-rule="evenodd" d="M475.137 613.305L157.785 811.702C85.5981 856.83 59.0838 947.544 95.9578 1023.22L118.715 1069.93C159.064 1152.73 260.345 1187.83 344.933 1148.33C349.45 1146.22 353.87 1143.93 358.179 1141.44L503.358 1057.49C530.395 1041.85 552.471 1019.18 567.129 991.996L568.892 988.723C584.081 960.55 584.556 926.959 570.17 898.384L534.529 827.592C481.626 866.204 453.062 892.782 448.835 907.327C445.066 920.298 401.93 947.019 319.428 987.491C301.534 996.268 279.754 990.117 269.386 973.358C261.058 959.898 265.454 942.376 279.204 934.225C280.777 933.293 282.435 932.507 284.158 931.882L438.653 875.766" fill="#9CC4F2"/>
<path fill-rule="evenodd" clip-rule="evenodd" d="M91.6336 1015.3C95.8759 1026.93 114.296 1063.34 121.33 1075.1C128.728 1087.49 136.602 1099.2 146.783 1110.82C156.867 1122.34 170.432 1133.71 190.903 1144.05C197.752 1147.5 205.106 1151.09 212.963 1154.84C207.679 1111.19 201.74 1080.73 195.146 1063.48C189.8 1049.49 184.363 1035.46 176.479 1024.44C156.682 996.755 124.683 968.77 80.4849 940.485C76.604 959.356 80.3203 984.296 91.6336 1015.3Z" fill="#AFD9FF"/>
<path fill-rule="evenodd" clip-rule="evenodd" d="M454.774 891.546L456.471 913.141C476.888 950.972 489.44 973.811 494.129 981.659C499.062 989.914 508.851 1010.27 523.499 1042.71C539.913 1028.79 552.923 1014.4 562.528 999.521C572.132 984.645 578.072 969.695 580.346 954.67C582.608 934.736 576.952 912.311 563.376 887.394C556.606 874.965 546.706 854.201 533.68 825.101C496.759 844.239 471.022 860.02 456.471 872.443C441.92 884.865 441.355 891.232 454.774 891.546Z" fill="white"/>
<path d="M568.421 898.172C582.627 926.388 582.157 959.561 567.158 987.38L565.395 990.651C550.847 1017.63 528.938 1040.14 502.103 1055.65L356.405 1139.89C352.284 1142.29 348.062 1144.49 343.751 1146.52C259.928 1185.99 159.292 1151.47 118.974 1069.41L97.0596 1024.81C60.4181 950.236 85.9228 860.63 156.674 815.349L470.743 614.347C471.331 613.972 471.496 613.199 471.113 612.623C470.727 612.046 469.938 611.885 469.351 612.262L155.281 813.263C83.4605 859.228 57.5707 950.189 94.7654 1025.89L116.681 1070.49C157.607 1153.78 259.765 1188.83 344.855 1148.76C349.232 1146.7 353.518 1144.46 357.699 1142.05L503.398 1057.8C530.639 1042.05 552.878 1019.2 567.647 991.816L569.41 988.543C584.789 960.018 585.271 926.003 570.705 897.071L535.063 826.281C534.761 825.68 534.026 825.421 533.401 825.695C491.202 844.216 465.311 858.077 455.581 867.401C451.133 871.663 448.666 877.052 447.656 883.585C447.027 887.659 446.982 891.177 447.239 897.471C447.464 903.001 447.447 904.697 447.003 906.225C443.39 918.66 400.202 945.413 318.251 985.615C300.949 994.101 279.892 988.155 269.867 971.952C262.027 959.277 266.166 942.782 279.112 935.106C280.707 934.161 282.395 933.377 284.151 932.767L445.019 876.939C445.681 876.71 446.027 875.997 445.793 875.349C445.559 874.702 444.831 874.361 444.167 874.592L283.301 930.418C281.38 931.084 279.536 931.941 277.793 932.975C263.644 941.363 259.12 959.392 267.69 973.242C278.402 990.557 300.903 996.91 319.391 987.842C402.444 947.099 445.526 920.411 449.451 906.906C450.005 905.001 450.023 903.27 449.782 897.373C449.531 891.228 449.575 887.83 450.173 883.958C451.106 877.923 453.346 873.029 457.363 869.18C466.711 860.221 492.076 846.607 533.323 828.46L568.421 898.172Z" fill="#4395F5"/>
<path fill-rule="evenodd" clip-rule="evenodd" d="M577.192 629.749C547.544 565.271 529.726 522.437 523.739 501.246C504.33 432.554 490.785 372.637 418.288 372.637C345.791 372.637 287.02 430.169 287.02 501.14C287.02 521.356 304.837 586.175 340.472 695.6C393.028 695.394 435.547 692.831 468.031 687.914C500.515 682.997 536.902 663.608 577.192 629.749Z" fill="#FFD1D1" stroke="#F56843" stroke-width="1.5" stroke-linecap="round" stroke-linejoin="round"/>
<path fill-rule="evenodd" clip-rule="evenodd" d="M576.952 629.552C547.305 565.075 529.488 522.24 523.499 501.049C504.09 432.358 490.545 372.438 418.048 372.438C345.55 372.438 286.779 429.972 286.779 500.943C286.779 521.159 304.597 585.979 340.232 695.403C392.789 695.197 435.309 692.634 467.791 687.717C500.275 682.8 536.662 663.411 576.952 629.552Z" fill="#9CC4F2" fill-opacity="0.84"/>
<path fill-rule="evenodd" clip-rule="evenodd" d="M576.952 629.552C547.305 565.075 529.488 522.24 523.499 501.049C504.09 432.358 490.545 372.438 418.048 372.438C345.55 372.438 286.779 429.972 286.779 500.943C286.779 521.159 304.597 585.979 340.232 695.403C392.789 695.197 435.309 692.634 467.791 687.717C500.275 682.8 536.662 663.411 576.952 629.552Z" stroke="#F56843" stroke-width="1.5" stroke-linecap="round" stroke-linejoin="round"/>
<path d="M578.112 629.041C548.492 564.624 530.69 521.826 524.725 500.718C523.945 497.954 520.485 485.618 519.553 482.327C508.133 441.985 500.23 421.385 487.509 404.077C471.442 382.22 449.465 371.193 418.047 371.193C344.847 371.193 285.506 429.285 285.506 500.944C285.506 521.353 303.325 586.177 339.018 695.783C339.188 696.301 339.68 696.65 340.236 696.65C392.851 696.442 435.43 693.877 467.985 688.949C500.739 683.99 537.327 664.495 577.781 630.498C578.209 630.138 578.343 629.545 578.112 629.041ZM467.597 686.487C435.376 691.364 393.228 693.921 341.16 694.153C305.772 585.436 288.051 520.912 288.051 500.944C288.051 430.661 346.252 373.685 418.047 373.685C448.647 373.685 469.855 384.326 485.442 405.533C497.929 422.523 505.759 442.932 517.101 482.993C518.031 486.279 521.489 498.615 522.271 501.382C528.256 522.564 545.959 565.15 575.4 629.214C535.562 662.56 499.618 681.64 467.597 686.487Z" fill="#4395F5"/>
<path d="M356.646 560.079C356.646 560.079 427.525 587.323 535.221 550.273C537.073 549.637 539.102 548.499 541.315 546.858C535.746 535.953 532.352 528.477 531.134 524.432C526.17 507.966 525.71 497.509 520.104 487.057C516.479 480.303 515.211 468.777 511.619 457.987C509.681 452.166 506.004 443.03 500.589 430.578C495.208 420.123 491.531 413.201 489.559 409.814C486.539 404.627 486.537 399.564 482.6 400.126C461.314 403.159 438.361 416.672 413.739 440.669C356.523 496.434 356.646 560.079 356.646 560.079Z" fill="#4395F5"/>
<path fill-rule="evenodd" clip-rule="evenodd" d="M402.17 453.004C408.109 446.36 411.396 442.2 416.594 437.223C421.791 432.248 428.472 426.426 440.351 418.12C446.573 434.178 452.794 451.62 460.714 475.43C472.592 511.144 453.783 516.777 431.017 492.872C415.84 476.936 406.789 464.2 402.17 453.004ZM469.47 450.941C473.702 451.23 476.006 469.205 477.299 472.292C478.02 474.013 477.18 475.978 475.424 476.684C473.819 477.328 471.974 476.7 471.122 475.222C466.164 466.606 463.704 461.435 463.739 459.707C463.832 455.341 465.237 450.65 469.47 450.941Z" fill="white"/>
<path d="M445.681 872.443C502.848 872.443 549.193 827.077 549.193 771.113C549.193 715.151 502.848 669.783 445.681 669.783C388.512 669.783 342.169 715.151 342.169 771.113C342.169 827.077 388.512 872.443 445.681 872.443Z" fill="#4395F5"/>
<path d="M357.834 551.569C348.886 512.698 362.029 475.742 397.377 440.589C432.734 405.429 457.713 388.396 471.885 389.463C472.586 389.516 471.689 389.737 471.743 389.051C471.797 388.364 471.595 388.273 470.895 388.22C470.489 388.19 471.263 386.931 470.844 386.926C455.483 386.765 430.523 404.077 395.563 438.842C359.641 474.565 346.2 512.361 355.351 552.117C355.506 552.788 356.186 553.21 356.874 553.059C357.559 552.908 357.988 552.24 357.834 551.569Z" fill="#4395F5"/>
<path fill-rule="evenodd" clip-rule="evenodd" d="M378.653 850.019L416.834 754.444L512.593 727.272C516.192 726.251 519.957 728.279 521.001 731.804C521.629 733.927 521.14 736.214 519.693 737.91L465.196 801.846L460.713 872.445L378.653 850.019Z" fill="white"/>
<path fill-rule="evenodd" clip-rule="evenodd" d="M416.62 754.502C403.595 768.431 395.314 777.587 391.776 781.972C373.2 804.989 373.883 813.689 382.682 819.287C399.651 830.084 417.229 851.74 429.108 831.807C437.026 818.517 432.863 792.75 416.62 754.502Z" fill="#9CC4F2"/>
<path d="M415.893 753.601C416.522 752.93 417.651 753.122 418.007 753.965C434.396 792.555 438.608 818.628 430.418 832.374C425.747 840.213 419.799 842.57 412.509 840.299C407.243 838.658 403.257 835.992 392.669 827.842C390.133 825.892 388.649 824.768 387.055 823.607C385.295 822.326 383.709 821.233 382.2 820.271C371.533 813.485 373.48 802.832 390.989 781.139C394.552 776.722 402.845 767.553 415.893 753.601ZM428.219 831.118C435.745 818.489 431.883 793.634 416.42 756.729C404.192 769.824 396.375 778.485 392.986 782.684C376.28 803.382 374.618 812.475 383.587 818.183C385.146 819.175 386.775 820.298 388.574 821.607C390.191 822.786 391.689 823.92 394.242 825.884C404.542 833.811 408.435 836.414 413.281 837.924C419.417 839.836 424.14 837.964 428.219 831.118ZM468.151 798.643C468.551 798.078 469.345 797.937 469.922 798.331C470.499 798.723 470.642 799.498 470.241 800.063C465.312 807.013 460.774 810.566 456.469 810.566C455.767 810.566 455.197 810.008 455.197 809.321C455.197 808.631 455.767 808.075 456.469 808.075C459.705 808.075 463.654 804.982 468.151 798.643Z" fill="#4395F5"/>
<path d="M352.111 575.099C359.139 575.099 364.838 569.522 364.838 562.64C364.838 555.76 359.139 550.182 352.111 550.182C345.082 550.182 339.384 555.76 339.384 562.64C339.384 569.522 345.082 575.099 352.111 575.099Z" fill="white"/>
<path d="M351.502 576.344C359.233 576.344 365.501 570.21 365.501 562.64C365.501 555.072 359.233 548.936 351.502 548.936C343.769 548.936 337.502 555.072 337.502 562.64C337.502 570.21 343.769 576.344 351.502 576.344ZM351.502 573.853C345.175 573.853 340.047 568.833 340.047 562.64C340.047 556.449 345.175 551.427 351.502 551.427C357.828 551.427 362.956 556.449 362.956 562.64C362.956 568.833 357.828 573.853 351.502 573.853Z" fill="#4395F5"/>
<path d="M351.502 569.7C355.917 569.7 359.562 566.58 359.562 562.64C359.562 558.701 355.917 555.58 351.502 555.58C347.085 555.58 343.441 558.701 343.441 562.64C343.441 566.58 347.085 569.7 351.502 569.7ZM351.502 567.208C348.42 567.208 345.987 565.123 345.987 562.64C345.987 560.158 348.42 558.072 351.502 558.072C354.582 558.072 357.017 560.158 357.017 562.64C357.017 565.123 354.582 567.208 351.502 567.208Z" fill="#4395F5"/>
<path fill-rule="evenodd" clip-rule="evenodd" d="M460.713 866.63L455.863 913.142L383.744 954.67L326.656 983.74L298.657 947.195C322.068 945.868 335.36 942.268 338.535 936.398C347.931 919.024 361.223 890.507 378.412 850.849L460.713 866.63Z" fill="white"/>
<path d="M460.957 864.576C461.604 864.699 462.046 865.284 461.979 865.925L457.129 912.437C457.088 912.831 456.857 913.183 456.508 913.384L384.331 954.944L327.243 984.014C326.692 984.295 326.012 984.144 325.638 983.657L297.639 947.112C297.03 946.316 297.571 945.177 298.584 945.12C321.521 943.819 334.538 940.295 337.41 934.984C346.785 917.646 360.065 889.158 377.241 849.531C377.476 848.988 378.066 848.681 378.657 848.795L460.957 864.576ZM379.181 851.433C362.173 890.638 349.003 918.871 339.66 936.148C336.298 942.364 323.51 946.004 301.091 947.464L327.026 981.316L383.097 952.765L454.662 911.557L459.33 866.802L379.181 851.433ZM455.216 911.236L454.597 912.183L454.662 911.557L455.216 911.236Z" fill="#4395F5"/>
<path fill-rule="evenodd" clip-rule="evenodd" d="M151.026 526.926C142.591 526.926 135.754 520.233 135.754 511.976C135.754 503.72 142.591 497.025 151.026 497.025C159.462 497.025 166.298 503.72 166.298 511.976C166.298 520.233 159.462 526.926 151.026 526.926ZM300.355 564.302L304.356 579.252C303.397 579.571 302.447 579.917 301.507 580.289C274.677 590.92 261.731 620.829 272.59 647.092L280.599 666.462L265.327 674.768L256.293 645.975C246.547 614.917 261.809 581.596 291.982 568.059L300.355 564.302Z" fill="white"/>
<path d="M186.223 581.926C186.262 581.67 186.218 581.409 186.1 581.178L157.252 525.53C156.933 524.917 156.168 524.671 155.541 524.983C154.914 525.294 154.664 526.045 154.981 526.658L183.646 581.952L180.311 603.986C180.226 604.549 180.542 605.097 181.078 605.318L204.348 614.851L242.386 684.048C242.72 684.654 243.493 684.88 244.11 684.554C244.73 684.229 244.962 683.473 244.628 682.867L206.376 613.281C206.239 613.029 206.016 612.833 205.746 612.722L182.974 603.393L186.223 581.926Z" fill="#4395F5"/>
<path d="M150.417 528.171C141.279 528.171 133.872 520.92 133.872 511.974C133.872 503.031 141.279 495.778 150.417 495.778C159.553 495.778 166.962 503.031 166.962 511.974C166.962 520.92 159.553 528.171 150.417 528.171ZM150.417 525.679C158.148 525.679 164.417 519.544 164.417 511.974C164.417 504.406 158.148 498.27 150.417 498.27C142.684 498.27 136.417 504.406 136.417 511.974C136.417 519.544 142.684 525.679 150.417 525.679ZM299.214 563.169C299.934 562.847 300.776 563.237 300.976 563.985L304.979 578.935C305.147 579.568 304.789 580.223 304.156 580.432C303.219 580.743 302.291 581.08 301.375 581.442C275.196 591.816 262.564 620.997 273.16 646.624L281.17 665.994C281.41 666.577 281.17 667.245 280.608 667.551L265.336 675.856C264.628 676.242 263.739 675.891 263.501 675.134L254.467 646.34C244.533 614.685 260.089 580.723 290.842 566.925L299.214 563.169ZM291.903 569.191C262.31 582.469 247.341 615.148 256.9 645.609L265.473 672.931L278.388 665.908L270.801 647.559C259.678 620.657 272.938 590.022 300.419 579.133C301.015 578.897 301.614 578.671 302.218 578.457L298.897 566.051L291.903 569.191Z" fill="#4395F5"/>
<path d="M182.725 1015.85C204.952 1045.51 219.109 1092.9 225.26 1158.05L222.725 1158.28C216.523 1092.6 202.162 1045.18 179.705 1016.05C161.349 992.243 141.64 972.633 121.345 956.823C106.451 945.218 92.514 936.617 80.3047 930.62L81.4467 928.394C93.8071 934.465 107.893 943.158 122.931 954.873C143.186 970.653 162.853 990.178 181.185 1013.84L266.658 968.525C267.276 968.198 268.048 968.422 268.384 969.029C268.718 969.633 268.489 970.389 267.87 970.717L182.725 1015.85ZM304.143 992.298C303.807 991.693 304.035 990.936 304.651 990.607C305.268 990.277 306.04 990.499 306.378 991.104L382.074 1126.84C382.412 1127.44 382.184 1128.2 381.568 1128.52C380.951 1128.85 380.177 1128.63 379.841 1128.03L304.143 992.298ZM276.37 935.018C276.68 935.636 276.419 936.382 275.788 936.686C275.158 936.989 274.395 936.734 274.086 936.117L199.094 786.613C198.783 785.996 199.045 785.25 199.676 784.946C200.306 784.643 201.069 784.897 201.378 785.515L276.37 935.018Z" fill="#4395F5"/>
<path d="M341.08 696.362L378.653 771.114" stroke="#F56843" stroke-width="1.5" stroke-linecap="round" stroke-linejoin="round"/>
<path d="M456.287 912.726L523.499 1042.13" stroke="#F56843" stroke-width="1.5" stroke-linecap="round" stroke-linejoin="round"/>
<path d="M1517.55 320.577C1518.23 320.389 1518.93 320.774 1519.11 321.437C1519.3 322.1 1518.91 322.788 1518.23 322.974L1410.24 352.755C1383.85 360.031 1368.5 386.868 1375.93 412.697C1377.66 418.717 1380.56 424.353 1384.48 429.297L1400.31 449.289C1415.67 468.671 1412.05 496.567 1392.25 511.597C1383.36 518.344 1372.23 521.618 1361.01 520.781L1306.56 516.721C1278.91 514.662 1251.92 525.628 1233.9 546.246L1207.47 576.451C1207.02 576.974 1206.22 577.036 1205.68 576.587C1205.15 576.14 1205.08 575.355 1205.54 574.831L1231.96 544.627C1250.51 523.404 1278.3 512.117 1306.74 514.238L1361.22 518.298C1371.8 519.087 1382.31 515.997 1390.69 509.627C1409.39 495.44 1412.78 469.111 1398.29 450.815L1382.46 430.824C1378.35 425.628 1375.3 419.702 1373.47 413.373C1365.66 386.219 1381.82 358.006 1409.54 350.356L1517.55 320.577ZM1330.38 681.412V659.817C1330.38 658.9 1331.15 658.156 1332.08 658.156C1333.01 658.156 1333.78 658.9 1333.78 659.817V681.412H1355.84C1356.77 681.412 1357.53 682.156 1357.53 683.073C1357.53 683.992 1356.77 684.735 1355.84 684.735H1333.78V706.329C1333.78 707.248 1333.01 707.991 1332.08 707.991C1331.15 707.991 1330.38 707.248 1330.38 706.329V684.735H1308.32C1307.39 684.735 1306.63 683.992 1306.63 683.073C1306.63 682.156 1307.39 681.412 1308.32 681.412H1330.38ZM536.226 149.846V128.251C536.226 127.334 536.986 126.59 537.922 126.59C538.859 126.59 539.619 127.334 539.619 128.251V149.846H561.679C562.616 149.846 563.376 150.59 563.376 151.507C563.376 152.426 562.616 153.168 561.679 153.168H539.619V174.763C539.619 175.682 538.859 176.424 537.922 176.424C536.986 176.424 536.226 175.682 536.226 174.763V153.168H514.166C513.229 153.168 512.469 152.426 512.469 151.507C512.469 150.59 513.229 149.846 514.166 149.846H536.226ZM1255.72 246.192V224.597C1255.72 223.68 1256.48 222.936 1257.42 222.936C1258.35 222.936 1259.11 223.68 1259.11 224.597V246.192H1281.17C1282.11 246.192 1282.87 246.936 1282.87 247.853C1282.87 248.772 1282.11 249.515 1281.17 249.515H1259.11V271.109C1259.11 272.028 1258.35 272.771 1257.42 272.771C1256.48 272.771 1255.72 272.028 1255.72 271.109V249.515H1233.66C1232.72 249.515 1231.96 248.772 1231.96 247.853C1231.96 246.936 1232.72 246.192 1233.66 246.192H1255.72ZM18.6661 681.412V664.801C18.6661 663.884 19.4263 663.14 20.363 663.14C21.2997 663.14 22.0599 663.884 22.0599 664.801V681.412H39.0291C39.9658 681.412 40.726 682.156 40.726 683.073C40.726 683.992 39.9658 684.735 39.0291 684.735H22.0599V701.346C22.0599 702.265 21.2997 703.007 20.363 703.007C19.4263 703.007 18.6661 702.265 18.6661 701.346V684.735H1.69692C0.760219 684.735 0 683.992 0 683.073C0 682.156 0.760219 681.412 1.69692 681.412H18.6661ZM1059.72 440.546V424.765C1059.72 423.848 1060.48 423.104 1061.42 423.104C1062.36 423.104 1063.12 423.848 1063.12 424.765V440.546H1079.24C1080.17 440.546 1080.94 441.29 1080.94 442.207C1080.94 443.126 1080.17 443.869 1079.24 443.869H1063.12V459.649C1063.12 460.568 1062.36 461.311 1061.42 461.311C1060.48 461.311 1059.72 460.568 1059.72 459.649V443.869H1043.6C1042.67 443.869 1041.91 443.126 1041.91 442.207C1041.91 441.29 1042.67 440.546 1043.6 440.546H1059.72ZM628.708 391.542V375.762C628.708 374.845 629.468 374.1 630.404 374.1C631.341 374.1 632.101 374.845 632.101 375.762V391.542H648.222C649.159 391.542 649.919 392.287 649.919 393.204C649.919 394.122 649.159 394.865 648.222 394.865H632.101V410.646C632.101 411.564 631.341 412.307 630.404 412.307C629.468 412.307 628.708 411.564 628.708 410.646V394.865H612.587C611.65 394.865 610.89 394.122 610.89 393.204C610.89 392.287 611.65 391.542 612.587 391.542H628.708Z" fill="#4395F5"/>
<path fill-rule="evenodd" clip-rule="evenodd" d="M461.846 753.641C453.602 747.857 446.859 746.412 441.613 749.304C433.747 753.641 423.63 762.317 429.25 773.163C434.87 784.007 439.365 792.683 444.985 792.683C450.605 792.683 460.721 793.767 466.341 781.837C470.088 773.885 468.589 764.486 461.846 753.641Z" fill="#AFD9FF"/>
<path fill-rule="evenodd" clip-rule="evenodd" d="M461.385 758.628C460.805 764.51 458.803 768.301 455.383 769.999C452.392 771.485 447.712 772.349 441.345 772.595C438.535 772.703 436.169 770.56 436.059 767.811C436.02 766.867 436.256 765.935 436.739 765.118C440.24 759.196 443.344 755.563 446.05 754.218C448.889 752.807 452.595 752.48 457.165 753.234C459.8 753.668 461.643 756.023 461.385 758.628Z" fill="white"/>
<path d="M459.276 760.6C458.421 761.914 456.726 762.809 454.774 762.809C451.963 762.809 449.684 760.95 449.684 758.656C449.684 756.419 451.856 754.593 454.574 754.507C451.073 754.139 448.226 754.518 446.016 755.615C443.59 756.821 440.619 760.299 437.232 766.028C436.87 766.64 436.694 767.341 436.722 768.047C436.804 770.11 438.579 771.716 440.686 771.635C446.887 771.397 451.404 770.562 454.199 769.175C456.829 767.867 458.54 765.047 459.276 760.6ZM456.884 754.875C457.306 755.008 457.695 755.211 458.036 755.468C457.688 755.231 457.301 755.032 456.884 754.875ZM462.046 759.033C461.424 765.299 459.222 769.474 455.35 771.395C452.163 772.979 447.321 773.874 440.787 774.125C437.274 774.259 434.316 771.582 434.179 768.145C434.131 766.967 434.427 765.801 435.029 764.781C438.643 758.664 441.881 754.875 444.866 753.394C447.976 751.847 451.951 751.495 456.768 752.291C460.062 752.834 462.366 755.779 462.046 759.033Z" fill="#4395F5"/>
<path fill-rule="evenodd" clip-rule="evenodd" d="M515.014 726.694C511.043 725.723 506.855 726.392 502.448 728.699C501.622 729.133 501.311 730.14 501.752 730.947C501.846 731.118 501.97 731.272 502.117 731.4C503.799 732.877 505.835 733.714 508.226 733.915C511.394 734.179 515.07 734.179 519.256 733.915C520.953 730.209 519.539 727.802 515.014 726.694Z" fill="#FFD1D1"/>
<path d="M516.172 725.31C511.875 724.259 507.368 724.978 502.697 727.423C501.251 728.181 500.706 729.943 501.48 731.359C501.643 731.658 501.858 731.925 502.116 732.153C504.007 733.81 506.304 734.757 508.967 734.98C512.203 735.251 515.941 735.251 520.187 734.982C520.658 734.952 521.073 734.669 521.266 734.247C523.306 729.794 521.427 726.596 516.172 725.31ZM509.184 732.496C507.063 732.319 505.288 731.588 503.815 730.297C503.778 730.264 503.747 730.226 503.723 730.182C503.613 729.981 503.691 729.729 503.898 729.621C508.038 727.452 511.907 726.835 515.554 727.727C519.045 728.581 520.127 730.016 519.225 732.543C515.429 732.754 512.081 732.739 509.184 732.496Z" fill="#4395F5"/>
<path fill-rule="evenodd" clip-rule="evenodd" d="M1569.65 246.192L1552.68 250.345L1595.95 291.874L1601.04 275.262" fill="white"/>
<path d="M918.88 1091.72C925.909 1091.72 931.607 1086.14 931.607 1079.26C931.607 1072.38 925.909 1066.8 918.88 1066.8C911.852 1066.8 906.153 1072.38 906.153 1079.26C906.153 1086.14 911.852 1091.72 918.88 1091.72Z" fill="white"/>
<path d="M918.272 1092.97C926.003 1092.97 932.272 1086.83 932.272 1079.26C932.272 1071.69 926.003 1065.55 918.272 1065.55C910.539 1065.55 904.272 1071.69 904.272 1079.26C904.272 1086.83 910.539 1092.97 918.272 1092.97ZM918.272 1090.47C911.946 1090.47 906.818 1085.45 906.818 1079.26C906.818 1073.06 911.946 1068.04 918.272 1068.04C924.598 1068.04 929.726 1073.06 929.726 1079.26C929.726 1085.45 924.598 1090.47 918.272 1090.47Z" fill="#4395F5"/>
<path d="M1110.63 894.038C1117.66 894.038 1123.36 888.462 1123.36 881.58C1123.36 874.699 1117.66 869.121 1110.63 869.121C1103.61 869.121 1097.91 874.699 1097.91 881.58C1097.91 888.462 1103.61 894.038 1110.63 894.038Z" fill="white"/>
<path d="M1110.63 895.284C1118.37 895.284 1124.63 889.149 1124.63 881.579C1124.63 874.011 1118.37 867.875 1110.63 867.875C1102.89 867.875 1096.63 874.011 1096.63 881.579C1096.63 889.149 1102.89 895.284 1110.63 895.284ZM1110.63 892.792C1104.3 892.792 1099.18 887.772 1099.18 881.579C1099.18 875.388 1104.3 870.367 1110.63 870.367C1116.96 870.367 1122.09 875.388 1122.09 881.579C1122.09 887.772 1116.96 892.792 1110.63 892.792Z" fill="#4395F5"/>
<path d="M918.271 1086.32C922.687 1086.32 926.332 1083.2 926.332 1079.26C926.332 1075.32 922.687 1072.2 918.271 1072.2C913.854 1072.2 910.211 1075.32 910.211 1079.26C910.211 1083.2 913.854 1086.32 918.271 1086.32ZM918.271 1083.82C915.19 1083.82 912.756 1081.74 912.756 1079.26C912.756 1076.77 915.19 1074.69 918.271 1074.69C921.351 1074.69 923.786 1076.77 923.786 1079.26C923.786 1081.74 921.351 1083.82 918.271 1083.82Z" fill="#4395F5"/>
<path d="M1110.63 888.64C1115.04 888.64 1118.69 885.521 1118.69 881.58C1118.69 877.642 1115.04 874.521 1110.63 874.521C1106.22 874.521 1102.57 877.642 1102.57 881.58C1102.57 885.521 1106.22 888.64 1110.63 888.64ZM1110.63 886.149C1107.54 886.149 1105.12 884.064 1105.12 881.58C1105.12 879.099 1107.54 877.012 1110.63 877.012C1113.72 877.012 1116.15 879.099 1116.15 881.58C1116.15 884.064 1113.72 886.149 1110.63 886.149Z" fill="#4395F5"/>
<path d="M363.371 563.559C376.7 575.473 405.809 580.782 450.805 579.665C495.708 578.552 527.595 571.865 546.506 559.524C547.089 559.142 547.247 558.368 546.859 557.796C546.468 557.223 545.678 557.069 545.094 557.451C526.67 569.473 495.206 576.072 450.74 577.175C406.364 578.275 377.778 573.062 365.087 561.72C364.567 561.255 363.763 561.291 363.29 561.8C362.814 562.308 362.852 563.095 363.371 563.559Z" fill="#4395F5"/>
<path fill-rule="evenodd" clip-rule="evenodd" d="M1829.74 2.16856C1787.6 16.3614 1744.63 41.541 1700.87 77.7058C1655.72 115.01 1607.01 166.222 1554.77 231.342L1613.5 286.852C1678.54 232.754 1729.12 183.323 1765.24 138.56C1800.28 95.1461 1824.66 52.4315 1838.44 10.4161C1839.22 8.0324 1838.54 5.41943 1836.71 3.68021C1834.86 1.93435 1832.16 1.35128 1829.74 2.16856Z" fill="#9CC4F2"/>
<path fill-rule="evenodd" clip-rule="evenodd" d="M1763.1 33.5654L1808.06 74.2634C1832.38 31.0737 1842 7.2628 1836.91 2.83419C1831.82 -1.59608 1807.22 8.6482 1763.1 33.5654Z" fill="#AFD9FF"/>
<path fill-rule="evenodd" clip-rule="evenodd" d="M1588.75 285.885L1562.01 317.621L1564.56 293.535L1543.35 298.518L1551.83 280.246H1527.22L1558.06 256.418L1550.17 248.845L1569.34 244.152L1569.95 246.569L1555.19 250.182L1595.34 288.709L1599.82 274.073L1602.26 274.789L1596.56 293.375L1588.75 285.885Z" fill="#4395F5"/>
<path d="M1700.02 76.1956C1654.8 113.56 1606.05 164.833 1553.75 230.014C1553.34 230.516 1553.39 231.237 1553.87 231.68L1612.58 287.191C1613.05 287.636 1613.78 287.658 1614.29 287.244C1679.4 233.096 1730.04 183.609 1766.22 138.774C1801.33 95.2489 1825.8 52.4047 1839.63 10.2398C1840.54 7.40259 1839.75 4.29457 1837.56 2.22479C1835.37 0.154999 1832.18 -0.537676 1829.31 0.430771C1786.99 14.6801 1743.9 39.9378 1700.02 76.1956ZM1556.46 230.669C1608.39 166.032 1656.8 115.174 1701.67 78.1009C1745.31 42.0291 1788.14 16.9276 1830.12 2.7879C1832.11 2.12344 1834.3 2.59856 1835.79 4.01718C1837.28 5.42749 1837.83 7.54543 1837.2 9.47734C1823.47 51.3415 1799.16 93.9266 1764.22 137.229C1728.33 181.72 1678.08 230.85 1613.51 284.613L1556.46 230.669Z" fill="#4395F5"/>
<path fill-rule="evenodd" clip-rule="evenodd" d="M1642.09 143.201L1634.52 156.394L1555.63 230.842L1496.6 234.278L1491.59 229.544L1642.09 143.201ZM1701.65 199.026L1616.09 347.839L1611.15 343.02L1613.65 285.176L1688.31 206.665L1701.65 199.026Z" fill="white"/>
<path d="M1640.61 142.718C1641.73 142.075 1643 143.296 1642.38 144.404L1634.81 157.595L1634.57 157.883L1555.7 232.33C1555.48 232.536 1555.19 232.659 1554.88 232.677L1495.85 236.114C1495.49 236.134 1495.14 236.008 1494.88 235.767L1489.88 231.033C1489.26 230.46 1489.38 229.478 1490.11 229.061L1640.61 142.718ZM1492.84 230.382L1496.26 233.594L1554.26 230.217L1632.67 156.215L1637.85 147.195L1492.84 230.382ZM1632.81 156.089L1632.59 156.376L1632.67 156.215L1632.81 156.089ZM1700.17 198.543C1701.29 197.9 1702.57 199.121 1701.92 200.229L1616.36 349.042C1615.96 349.762 1614.95 349.896 1614.36 349.311L1609.44 344.494C1609.19 344.247 1609.05 343.908 1609.07 343.561L1611.54 285.715C1611.56 285.417 1611.68 285.135 1611.88 284.917L1686.55 206.408L1686.84 206.182L1700.17 198.543ZM1688.28 208.24L1614.07 286.279L1611.63 343.119L1614.97 346.39L1697.41 203.016L1688.28 208.24Z" fill="#4395F5"/>
<path d="M1737.64 129.911C1751.69 129.911 1763.1 118.757 1763.1 104.994C1763.1 91.2334 1751.69 80.0771 1737.64 80.0771C1723.59 80.0771 1712.19 91.2334 1712.19 104.994C1712.19 118.757 1723.59 129.911 1737.64 129.911Z" fill="white"/>
<path d="M1737.98 130.577C1752.74 130.577 1764.71 118.863 1764.71 104.414C1764.71 89.9637 1752.74 78.251 1737.98 78.251C1723.22 78.251 1711.25 89.9637 1711.25 104.414C1711.25 118.863 1723.22 130.577 1737.98 130.577ZM1737.98 128.085C1724.63 128.085 1713.8 117.487 1713.8 104.414C1713.8 91.3408 1724.63 80.7427 1737.98 80.7427C1751.34 80.7427 1762.16 91.3408 1762.16 104.414C1762.16 117.487 1751.34 128.085 1737.98 128.085Z" fill="#4395F5"/>
<path d="M1737.64 117.868C1730.38 117.868 1724.49 112.106 1724.49 104.995C1724.49 97.8849 1730.38 92.1207 1737.64 92.1207C1744.91 92.1207 1750.79 97.8849 1750.79 104.995C1750.79 112.106 1744.91 117.868 1737.64 117.868ZM1737.64 115.377C1743.5 115.377 1748.25 110.729 1748.25 104.995C1748.25 99.262 1743.5 94.6125 1737.64 94.6125C1731.79 94.6125 1727.04 99.262 1727.04 104.995C1727.04 110.729 1731.79 115.377 1737.64 115.377ZM1762.23 33.6451L1763.96 31.8262L1809.32 73.3548L1807.59 75.1737L1762.23 33.6451Z" fill="#4395F5"/>
<path d="M873.232 561.587C838.148 583.21 813.98 603.805 800.729 623.416C787.492 643.008 775.567 676.08 764.914 722.67L767.398 723.213C777.99 676.895 789.823 644.074 802.852 624.79C815.871 605.524 839.782 585.145 874.589 563.695L873.232 561.587Z" fill="#4395F5"/>
<path fill-rule="evenodd" clip-rule="evenodd" d="M381.621 843.454C395.3 848.217 407.956 851.836 419.588 854.311C430.969 856.733 444.343 858.826 459.707 860.589C462.965 860.963 465.298 863.851 464.916 867.041C464.886 867.287 464.841 867.531 464.78 867.772L464.614 868.425C463.772 871.729 460.516 873.875 457.071 873.395C442.787 871.406 429.444 869.199 417.043 866.77C404.462 864.307 391.764 860.054 378.947 854.012C376.156 852.695 374.691 849.64 375.443 846.697C376.078 844.213 378.647 842.705 381.184 843.325C381.331 843.361 381.477 843.404 381.621 843.454Z" fill="white"/>
<path d="M431.904 858.986C427.557 858.235 423.439 857.446 419.549 856.619C414.808 855.609 409.87 854.306 404.733 852.712L402.899 860.489C408.036 861.991 413.084 863.227 418.042 864.198C421.981 864.969 426.016 865.718 430.146 866.446L431.904 858.986ZM434.416 859.411L432.655 866.881C440.722 868.271 449.147 869.577 457.932 870.8C460.083 871.099 462.12 869.758 462.646 867.693L462.812 867.041C462.846 866.903 462.873 866.763 462.89 866.622C463.107 864.8 461.775 863.149 459.912 862.934C450.708 861.879 442.208 860.705 434.416 859.411ZM402.303 851.939C395.685 849.791 388.747 847.17 381.486 844.074C381.326 844.005 381.16 843.951 380.992 843.909C379.312 843.499 377.612 844.499 377.192 846.143L376.926 847.193C376.424 849.162 377.45 851.198 379.353 852.007C386.544 855.062 393.581 857.645 400.461 859.758L402.303 851.939ZM382.502 841.788C396.22 847.638 408.748 851.77 420.089 854.183C431.472 856.605 444.843 858.698 460.209 860.459C463.467 860.833 465.799 863.723 465.417 866.913C465.388 867.159 465.342 867.403 465.281 867.644L465.115 868.296C464.273 871.599 461.017 873.747 457.574 873.267C443.289 871.278 429.946 869.07 417.543 866.642C405.01 864.188 391.942 860.072 378.34 854.293C375.295 852.999 373.653 849.741 374.455 846.59L374.723 845.54C375.482 842.562 378.564 840.748 381.608 841.491C381.913 841.565 382.212 841.665 382.502 841.788Z" fill="#4395F5"/>
<path fill-rule="evenodd" clip-rule="evenodd" d="M230.78 707.16L242.659 702.176L254.537 726.263L242.659 733.738L230.78 707.16ZM270.658 716.296C267.49 716.296 264.303 715.784 262.173 713.804C259.894 711.686 258.779 707.989 258.779 704.668C258.779 702.012 259.792 698.321 261.325 696.362C263.495 693.59 266.813 693.04 270.658 693.04C274.082 693.04 276.975 693.264 279.142 695.532C281.128 697.612 282.536 701.598 282.536 704.668C282.536 708.502 281.218 712.517 278.294 714.635C276.32 716.065 273.302 716.296 270.658 716.296Z" fill="#FFD1D1"/>
<path d="M229.948 706.51L244.124 700.563L257.021 726.715L242.94 735.577L229.948 706.51ZM244.075 731.901L253.749 725.813L242.889 703.791L233.308 707.811L244.075 731.901ZM271.506 717.542C267.443 717.542 264.333 716.741 262.146 714.708C259.721 712.455 258.355 708.567 258.355 704.668C258.355 701.616 259.512 697.714 261.163 695.605C263.389 692.759 266.541 691.794 271.506 691.794C276.233 691.794 278.731 692.39 280.92 694.681C283.096 696.958 284.657 701.226 284.657 704.668C284.657 709.213 282.994 713.396 279.899 715.636C277.92 717.07 275.264 717.542 271.506 717.542ZM271.506 715.05C274.752 715.05 276.975 714.656 278.385 713.635C280.747 711.924 282.111 708.492 282.111 704.668C282.111 701.832 280.774 698.176 279.06 696.384C277.492 694.742 275.585 694.286 271.506 694.286C267.255 694.286 264.818 695.032 263.182 697.121C261.899 698.761 260.9 702.131 260.9 704.668C260.9 707.935 262.037 711.171 263.897 712.902C265.512 714.402 268.034 715.05 271.506 715.05Z" fill="#4395F5"/>
<path d="M895.972 357.488H748.341C745.529 357.488 743.25 359.721 743.25 362.472C743.25 365.224 745.529 367.455 748.341 367.455H895.972C898.784 367.455 901.063 365.224 901.063 362.472C901.063 359.721 898.784 357.488 895.972 357.488Z" fill="white"/>
<path d="M748.341 357.488H895.972C898.784 357.488 901.063 359.721 901.063 362.472C901.063 365.224 898.784 367.455 895.972 367.455H748.341C745.529 367.455 743.25 365.224 743.25 362.472C743.25 359.721 745.529 357.488 748.341 357.488ZM748.341 359.98C746.936 359.98 745.795 361.096 745.795 362.472C745.795 363.849 746.936 364.963 748.341 364.963H895.972C897.377 364.963 898.518 363.849 898.518 362.472C898.518 361.096 897.377 359.98 895.972 359.98H748.341Z" fill="#4395F5"/>
<path d="M526.473 1039.79L459.45 911.017C458.493 909.178 456.194 908.447 454.315 909.384C452.437 910.321 451.688 912.571 452.647 914.41L519.67 1043.18C520.627 1045.02 522.927 1045.75 524.805 1044.81C526.684 1043.87 527.43 1041.62 526.473 1039.79Z" fill="white" stroke="#4395F5" stroke-width="1.5"/>
<path fill-rule="evenodd" clip-rule="evenodd" d="M485.516 708.504C480.682 712.514 458.025 695.485 453.178 693.477C450.573 692.399 449.355 689.457 450.456 686.907C451.468 684.568 454.103 683.339 456.594 684.043C471.48 688.249 479.871 691.301 481.768 693.195C486.577 697.999 490.351 704.492 485.516 708.504Z" fill="white"/>
<path fill-rule="evenodd" clip-rule="evenodd" d="M599.566 821.74L650.247 790.314C651.04 789.822 652.089 790.053 652.589 790.827C652.601 790.847 652.613 790.866 652.625 790.886L672.019 823.733C672.47 824.499 672.229 825.479 671.469 825.959L621.69 857.398C620.903 857.894 619.852 857.674 619.345 856.903C619.336 856.89 619.326 856.876 619.318 856.861L599.023 824.002C598.544 823.23 598.787 822.223 599.566 821.74Z" fill="white"/>
<path d="M597.183 822.244L650.428 789.674C651.223 789.187 652.27 789.425 652.767 790.202L674.348 824.011C674.845 824.79 674.603 825.815 673.809 826.3L620.563 858.87C619.769 859.357 618.722 859.121 618.224 858.342L596.643 824.533C596.146 823.755 596.388 822.731 597.183 822.244ZM599.251 823.917L619.933 856.317L671.74 824.628L651.058 792.227L599.251 823.917Z" fill="#4395F5"/>
<path d="M610.007 822.751L644.544 801.624C645.338 801.138 646.385 801.373 646.883 802.153L661.271 824.693C661.766 825.47 661.525 826.495 660.731 826.982L626.192 848.108C625.398 848.593 624.351 848.357 623.854 847.58L609.467 825.04C608.97 824.261 609.213 823.236 610.007 822.751ZM625.564 845.555L658.663 825.307L645.174 804.178L612.075 824.424L625.564 845.555Z" fill="#4395F5"/>
</svg>
