<svg width="118" height="73" viewBox="0 0 118 73" fill="none" xmlns="http://www.w3.org/2000/svg">
<path d="M57.1537 5.20573L56.911 10.3314L48.6579 10.5716L40.3239 10.8119V24.1865V37.6413L45.5832 42.7669L50.8425 47.8925V34.5179V21.1432H59.7429H68.6433V29.3922V37.6413L73.9026 42.7669L79.162 47.8925V34.7581V21.5436L68.3197 10.8119L57.3964 2.85357e-05L57.1537 5.20573Z" fill="#0678FF"/>
<path d="M41.942 62.909V72.8398L46.9586 72.9199C53.108 72.9199 54.5644 72.1991 55.6972 68.3549C57.3963 62.909 53.5125 57.8634 48.415 58.9046C46.0686 59.305 45.9877 59.305 45.9877 56.1816C45.9877 53.2984 45.7449 52.9781 43.9648 52.9781H41.942V62.909ZM51.5706 64.0302C52.6225 66.0324 51.8134 68.8354 49.9524 69.3961C47.1204 70.277 44.9358 67.3939 46.0686 64.3505C46.8777 62.1081 50.4379 61.9479 51.5706 64.0302Z" fill="#0678FF"/>
<path d="M0.11016 55.9413C0.352898 56.7422 1.16203 60.266 1.89024 63.7899C3.91306 73.4805 3.75123 73.1601 6.58318 72.8398C9.17239 72.5995 9.09147 72.7597 10.7097 65.4717C11.4379 62.5085 12.0043 63.1492 13.218 68.3549C14.1081 72.4394 14.2699 72.5995 16.8591 72.5995H19.6101L20.9856 66.1925C23.6558 54.0993 23.6558 54.5798 21.4711 54.5798C19.691 54.5798 19.3674 55.1404 18.4773 59.5452C17.911 62.3483 17.2637 64.9111 17.0209 65.3115C16.7782 65.7921 15.9691 63.6297 15.3218 60.5063C14.1081 55.4607 13.7844 54.9802 11.8425 54.74C9.81969 54.4997 9.65786 54.74 8.76782 59.1448C7.31139 66.4328 6.98774 66.5929 5.61223 60.5864C4.39853 55.3807 4.1558 54.9802 1.97115 54.74C0.11016 54.4997 -0.213491 54.74 0.11016 55.9413Z" fill="#0678FF"/>
<path d="M59.7429 63.7899V73H65.0022C70.0997 73 70.2616 72.9199 70.2616 70.9978C70.2616 69.1558 69.9379 68.9956 66.9442 68.9956C64.0313 68.9956 63.7076 68.8354 63.9504 67.1536C64.1122 65.7921 64.8404 65.3116 66.8632 65.1514C68.8051 64.9912 69.4524 64.5107 69.4524 63.3094C69.4524 62.1081 68.8861 61.7877 66.6205 61.7877C64.3549 61.7877 63.7886 61.4674 63.7886 60.186C63.7886 58.8245 64.3549 58.5842 67.0251 58.5842C69.9379 58.5842 70.2616 58.3439 70.2616 56.582C70.2616 54.6599 70.0997 54.5798 65.0022 54.5798H59.7429V63.7899Z" fill="#0678FF"/>
<path d="M26.9731 60.5864C25.4358 62.028 24.9503 63.3895 24.9503 66.1125C24.9503 70.8376 27.4586 73 33.1225 73C36.6827 73 37.0872 72.8398 37.0872 71.158C37.0872 69.5562 36.7636 69.316 34.2553 69.6363C32.5561 69.8766 30.8569 69.5562 30.0478 68.9155C28.915 67.9545 29.3196 67.7142 33.5271 67.3939C38.22 66.9934 38.3009 66.9133 38.1391 64.6709C37.7345 59.0647 30.9379 56.582 26.9731 60.5864ZM34.6598 63.7899C34.6598 64.0302 33.2843 64.1903 31.6661 64.1903C28.8341 64.1103 28.6723 64.0302 30.1287 62.989C31.1806 62.1882 32.0706 62.1081 33.1225 62.6687C34.0125 63.0691 34.6598 63.6297 34.6598 63.7899Z" fill="#0678FF"/>
<path d="M75.6017 60.5864C72.9316 63.3895 72.7697 67.8744 75.1971 70.8376C76.6535 72.7597 77.3008 72.9199 82.4793 72.9199L88.0622 72.8398V66.1125C88.0622 60.1059 87.9004 59.3851 86.5249 59.3851C85.7158 59.3851 83.3693 59.1448 81.3465 58.9046C78.0291 58.424 77.4627 58.5842 75.6017 60.5864ZM83.2075 63.87C84.8257 65.7921 83.2884 69.3961 80.861 69.3961C78.4336 69.3961 77.139 67.474 77.8672 64.751C78.4336 62.2682 81.5083 61.7877 83.2075 63.87Z" fill="#0678FF"/>
<path d="M93.7262 59.6253C90.0042 61.4674 91.2179 66.9133 95.5872 67.554C96.4772 67.7142 97.4482 68.2748 97.61 68.9155C97.9337 69.7965 97.2864 69.9567 94.6162 69.5562C91.5416 69.1558 91.2988 69.316 91.2988 71.0779C91.2988 72.8398 91.6225 73 95.749 73C99.5519 73 100.361 72.7597 101.494 70.9978C103.274 68.2748 102.06 65.5518 98.581 64.5107C95.3445 63.5496 95.749 62.1081 99.2283 62.3483C101.575 62.5085 101.898 62.3483 101.656 60.7466C101.494 59.3851 100.847 58.9046 98.581 58.7444C97.0436 58.6643 94.859 59.0647 93.7262 59.6253Z" fill="#0678FF"/>
<path d="M107.077 60.3461C105.863 61.4674 104.811 63.3895 104.568 65.0713C104.164 67.3939 104.488 68.3549 106.268 70.5173C108.29 72.8398 108.857 73.0801 112.66 72.8398C116.22 72.5996 116.786 72.3593 117.029 70.7576C117.272 69.1558 117.029 68.9956 115.249 69.4761C112.741 70.0368 109.1 69.316 109.1 68.1947C109.1 67.7142 111.122 67.3939 113.55 67.3939C118 67.3939 118 67.3939 118 64.9912C118 59.5453 111.365 56.7422 107.077 60.3461ZM113.954 63.3895C113.954 63.7899 112.822 64.1904 111.446 64.1904C110.071 64.1904 109.181 63.87 109.504 63.3895C109.747 62.909 110.88 62.5886 112.012 62.5886C113.064 62.5886 113.954 62.909 113.954 63.3895Z" fill="#0678FF"/>
</svg>
